<svg width="65" height="69" viewBox="0 0 65 69" fill="none" xmlns="http://www.w3.org/2000/svg">
<path d="M6.846 61.83H2.59L1.806 64H0.462L3.99 54.298H5.46L8.974 64H7.63L6.846 61.83ZM6.482 60.794L4.718 55.866L2.954 60.794H6.482ZM11.7856 57.574C12.0096 57.1353 12.3269 56.7947 12.7376 56.552C13.1576 56.3093 13.6663 56.188 14.2636 56.188V57.504H13.9276C12.4996 57.504 11.7856 58.2787 11.7856 59.828V64H10.5116V56.328H11.7856V57.574ZM24.9603 56.188C25.5576 56.188 26.0896 56.314 26.5563 56.566C27.0229 56.8087 27.3916 57.1773 27.6623 57.672C27.9329 58.1667 28.0683 58.7687 28.0683 59.478V64H26.8083V59.66C26.8083 58.8947 26.6169 58.3113 26.2343 57.91C25.8609 57.4993 25.3523 57.294 24.7083 57.294C24.0456 57.294 23.5183 57.5087 23.1263 57.938C22.7343 58.358 22.5383 58.9693 22.5383 59.772V64H21.2783V59.66C21.2783 58.8947 21.0869 58.3113 20.7043 57.91C20.3309 57.4993 19.8223 57.294 19.1783 57.294C18.5156 57.294 17.9883 57.5087 17.5963 57.938C17.2043 58.358 17.0083 58.9693 17.0083 59.772V64H15.7343V56.328H17.0083V57.434C17.2603 57.0327 17.5963 56.7247 18.0163 56.51C18.4456 56.2953 18.9169 56.188 19.4303 56.188C20.0743 56.188 20.6436 56.3327 21.1383 56.622C21.6329 56.9113 22.0016 57.336 22.2443 57.896C22.4589 57.3547 22.8136 56.9347 23.3083 56.636C23.8029 56.3373 24.3536 56.188 24.9603 56.188ZM29.6821 60.15C29.6821 59.3567 29.8407 58.666 30.1581 58.078C30.4754 57.4807 30.9141 57.0187 31.4741 56.692C32.0434 56.3653 32.6921 56.202 33.4201 56.202C34.3627 56.202 35.1374 56.4307 35.7441 56.888C36.3601 57.3453 36.7661 57.98 36.9621 58.792H35.5901C35.4594 58.3253 35.2027 57.9567 34.8201 57.686C34.4467 57.4153 33.9801 57.28 33.4201 57.28C32.6921 57.28 32.1041 57.532 31.6561 58.036C31.2081 58.5307 30.9841 59.2353 30.9841 60.15C30.9841 61.074 31.2081 61.788 31.6561 62.292C32.1041 62.796 32.6921 63.048 33.4201 63.048C33.9801 63.048 34.4467 62.9173 34.8201 62.656C35.1934 62.3947 35.4501 62.0213 35.5901 61.536H36.9621C36.7567 62.32 36.3461 62.95 35.7301 63.426C35.1141 63.8927 34.3441 64.126 33.4201 64.126C32.6921 64.126 32.0434 63.9627 31.4741 63.636C30.9141 63.3093 30.4754 62.8473 30.1581 62.25C29.8407 61.6527 29.6821 60.9527 29.6821 60.15ZM42.47 56.188C43.0487 56.188 43.5713 56.314 44.038 56.566C44.5047 56.8087 44.8687 57.1773 45.13 57.672C45.4007 58.1667 45.536 58.7687 45.536 59.478V64H44.276V59.66C44.276 58.8947 44.0847 58.3113 43.702 57.91C43.3193 57.4993 42.7967 57.294 42.134 57.294C41.462 57.294 40.9253 57.504 40.524 57.924C40.132 58.344 39.936 58.9553 39.936 59.758V64H38.662V53.64H39.936V57.42C40.188 57.028 40.5333 56.7247 40.972 56.51C41.42 56.2953 41.9193 56.188 42.47 56.188ZM47.1411 60.136C47.1411 59.352 47.2997 58.666 47.6171 58.078C47.9344 57.4807 48.3684 57.0187 48.9191 56.692C49.4791 56.3653 50.0997 56.202 50.7811 56.202C51.4531 56.202 52.0364 56.3467 52.5311 56.636C53.0257 56.9253 53.3944 57.2893 53.6371 57.728V56.328H54.9251V64H53.6371V62.572C53.3851 63.02 53.0071 63.3933 52.5031 63.692C52.0084 63.9813 51.4297 64.126 50.7671 64.126C50.0857 64.126 49.4697 63.958 48.9191 63.622C48.3684 63.286 47.9344 62.8147 47.6171 62.208C47.2997 61.6013 47.1411 60.9107 47.1411 60.136ZM53.6371 60.15C53.6371 59.5713 53.5204 59.0673 53.2871 58.638C53.0537 58.2087 52.7364 57.882 52.3351 57.658C51.9431 57.4247 51.5091 57.308 51.0331 57.308C50.5571 57.308 50.1231 57.42 49.7311 57.644C49.3391 57.868 49.0264 58.1947 48.7931 58.624C48.5597 59.0533 48.4431 59.5573 48.4431 60.136C48.4431 60.724 48.5597 61.2373 48.7931 61.676C49.0264 62.1053 49.3391 62.4367 49.7311 62.67C50.1231 62.894 50.5571 63.006 51.0331 63.006C51.5091 63.006 51.9431 62.894 52.3351 62.67C52.7364 62.4367 53.0537 62.1053 53.2871 61.676C53.5204 61.2373 53.6371 60.7287 53.6371 60.15ZM57.736 55.082C57.4933 55.082 57.288 54.998 57.12 54.83C56.952 54.662 56.868 54.4567 56.868 54.214C56.868 53.9713 56.952 53.766 57.12 53.598C57.288 53.43 57.4933 53.346 57.736 53.346C57.9693 53.346 58.1653 53.43 58.324 53.598C58.492 53.766 58.576 53.9713 58.576 54.214C58.576 54.4567 58.492 54.662 58.324 54.83C58.1653 54.998 57.9693 55.082 57.736 55.082ZM58.352 56.328V64H57.078V56.328H58.352ZM61.7973 57.574C62.0213 57.1353 62.3386 56.7947 62.7493 56.552C63.1693 56.3093 63.678 56.188 64.2753 56.188V57.504H63.9393C62.5113 57.504 61.7973 58.2787 61.7973 59.828V64H60.5233V56.328H61.7973V57.574Z" fill="#363636"/>
<g clip-path="url(#clip0_1_879)">
<rect x="8" width="44" height="44" rx="12" fill="#F5F5F5"/>
<g clip-path="url(#clip1_1_879)">
<mask id="mask0_1_879" style="mask-type:alpha" maskUnits="userSpaceOnUse" x="16" y="8" width="28" height="28">
<rect x="16" y="8" width="28" height="28" fill="white"/>
</mask>
<g mask="url(#mask0_1_879)">
<path d="M38.8672 11.2667C40.1549 11.2684 41.1985 12.312 41.2002 13.5997V16.8663H41.667C42.9549 16.8679 43.9985 17.9124 44 19.2003V26.6671C43.9983 27.9548 42.9547 28.9984 41.667 29.0001H41.2002V32.2667C41.2002 32.5243 40.9912 32.7334 40.7334 32.7335H39.7998C39.6052 32.7335 39.4306 32.6129 39.3623 32.4307L38.0762 29.0001H21.9238L20.6377 32.4307C20.5694 32.6129 20.3947 32.7335 20.2002 32.7335H19.2666C19.0089 32.7334 18.7998 32.5243 18.7998 32.2667V29.0001H18.333C17.0453 28.9984 16.0017 27.9548 16 26.6671V19.2003C16.0015 17.9124 17.0452 16.868 18.333 16.8663H18.7998V13.5997C18.8015 12.3118 19.8459 11.2682 21.1338 11.2667H38.8672ZM19.7334 31.7999H19.877L20.9268 29.0001H19.7334V31.7999ZM40.123 31.7999H40.2666V29.0001H39.0732L40.123 31.7999ZM16.9336 26.6671C16.9338 27.44 17.5601 28.0663 18.333 28.0665H41.667C42.4399 28.0663 43.0662 27.44 43.0664 26.6671V23.3995H16.9336V26.6671ZM18.333 17.7999C17.5599 17.8 16.9336 18.4272 16.9336 19.2003V22.4669H20.667V17.7999H18.333ZM21.1338 12.2003C20.3607 12.2003 19.7336 12.8266 19.7334 13.5997V16.8663H21.1338C21.3912 16.8665 21.5995 17.0756 21.5996 17.3331V22.4669H38.4004V17.3331C38.4005 17.0755 38.6095 16.8663 38.8672 16.8663H40.2666V13.5997C40.2664 12.8268 39.6401 12.2005 38.8672 12.2003H21.1338ZM39.333 17.7999V22.4669H43.0664V19.2003C43.0664 18.4271 42.4401 17.8 41.667 17.7999H39.333Z" fill="#363636"/>
</g>
</g>
</g>
<defs>
<clipPath id="clip0_1_879">
<rect width="44" height="44" fill="white" transform="translate(8)"/>
</clipPath>
<clipPath id="clip1_1_879">
<rect width="28" height="28" fill="white" transform="translate(16 8)"/>
</clipPath>
</defs>
</svg>
