<svg width="44" height="69" viewBox="0 0 44 69" fill="none" xmlns="http://www.w3.org/2000/svg">
<path d="M4.602 59.114C4.602 58.162 4.81667 57.308 5.246 56.552C5.67533 55.7867 6.25867 55.1893 6.996 54.76C7.74267 54.3307 8.56867 54.116 9.474 54.116C10.538 54.116 11.4667 54.3727 12.26 54.886C13.0533 55.3993 13.632 56.1273 13.996 57.07H12.47C12.1993 56.482 11.8073 56.0293 11.294 55.712C10.79 55.3947 10.1833 55.236 9.474 55.236C8.79267 55.236 8.18133 55.3947 7.64 55.712C7.09867 56.0293 6.674 56.482 6.366 57.07C6.058 57.6487 5.904 58.33 5.904 59.114C5.904 59.8887 6.058 60.57 6.366 61.158C6.674 61.7367 7.09867 62.1847 7.64 62.502C8.18133 62.8193 8.79267 62.978 9.474 62.978C10.1833 62.978 10.79 62.824 11.294 62.516C11.8073 62.1987 12.1993 61.746 12.47 61.158H13.996C13.632 62.0913 13.0533 62.8147 12.26 63.328C11.4667 63.832 10.538 64.084 9.474 64.084C8.56867 64.084 7.74267 63.874 6.996 63.454C6.25867 63.0247 5.67533 62.432 5.246 61.676C4.81667 60.92 4.602 60.066 4.602 59.114ZM19.7005 56.188C20.2791 56.188 20.8018 56.314 21.2685 56.566C21.7351 56.8087 22.0991 57.1773 22.3605 57.672C22.6311 58.1667 22.7665 58.7687 22.7665 59.478V64H21.5065V59.66C21.5065 58.8947 21.3151 58.3113 20.9325 57.91C20.5498 57.4993 20.0271 57.294 19.3645 57.294C18.6925 57.294 18.1558 57.504 17.7545 57.924C17.3625 58.344 17.1665 58.9553 17.1665 59.758V64H15.8925V53.64H17.1665V57.42C17.4185 57.028 17.7638 56.7247 18.2025 56.51C18.6505 56.2953 19.1498 56.188 19.7005 56.188ZM24.3715 60.136C24.3715 59.352 24.5302 58.666 24.8475 58.078C25.1649 57.4807 25.5989 57.0187 26.1495 56.692C26.7095 56.3653 27.3302 56.202 28.0115 56.202C28.6835 56.202 29.2669 56.3467 29.7615 56.636C30.2562 56.9253 30.6249 57.2893 30.8675 57.728V56.328H32.1555V64H30.8675V62.572C30.6155 63.02 30.2375 63.3933 29.7335 63.692C29.2389 63.9813 28.6602 64.126 27.9975 64.126C27.3162 64.126 26.7002 63.958 26.1495 63.622C25.5989 63.286 25.1649 62.8147 24.8475 62.208C24.5302 61.6013 24.3715 60.9107 24.3715 60.136ZM30.8675 60.15C30.8675 59.5713 30.7509 59.0673 30.5175 58.638C30.2842 58.2087 29.9669 57.882 29.5655 57.658C29.1735 57.4247 28.7395 57.308 28.2635 57.308C27.7875 57.308 27.3535 57.42 26.9615 57.644C26.5695 57.868 26.2569 58.1947 26.0235 58.624C25.7902 59.0533 25.6735 59.5573 25.6735 60.136C25.6735 60.724 25.7902 61.2373 26.0235 61.676C26.2569 62.1053 26.5695 62.4367 26.9615 62.67C27.3535 62.894 27.7875 63.006 28.2635 63.006C28.7395 63.006 29.1735 62.894 29.5655 62.67C29.9669 62.4367 30.2842 62.1053 30.5175 61.676C30.7509 61.2373 30.8675 60.7287 30.8675 60.15ZM34.9665 55.082C34.7238 55.082 34.5185 54.998 34.3505 54.83C34.1825 54.662 34.0985 54.4567 34.0985 54.214C34.0985 53.9713 34.1825 53.766 34.3505 53.598C34.5185 53.43 34.7238 53.346 34.9665 53.346C35.1998 53.346 35.3958 53.43 35.5545 53.598C35.7225 53.766 35.8065 53.9713 35.8065 54.214C35.8065 54.4567 35.7225 54.662 35.5545 54.83C35.3958 54.998 35.1998 55.082 34.9665 55.082ZM35.5825 56.328V64H34.3085V56.328H35.5825ZM39.0278 57.574C39.2518 57.1353 39.5691 56.7947 39.9798 56.552C40.3998 56.3093 40.9084 56.188 41.5058 56.188V57.504H41.1698C39.7418 57.504 39.0278 58.2787 39.0278 59.828V64H37.7538V56.328H39.0278V57.574Z" fill="#363636"/>
<g clip-path="url(#clip0_1_855)">
<rect width="44" height="44" rx="12" fill="#F5F5F5"/>
<g clip-path="url(#clip1_1_855)">
<mask id="mask0_1_855" style="mask-type:alpha" maskUnits="userSpaceOnUse" x="8" y="8" width="28" height="28">
<rect x="8" y="8" width="28" height="28" fill="white"/>
</mask>
<g mask="url(#mask0_1_855)">
<path d="M25.4364 8C27.0195 8 28.3075 9.28719 28.3075 10.8691C28.3075 10.9613 28.3093 10.9069 28.2509 12.1572L27.788 22.0547H27.8309C28.5999 22.0547 29.2254 22.6804 29.2255 23.4492V25.4834C29.2254 26.2522 28.5999 26.8779 27.8309 26.8779H27.5487V34.8477C27.5487 35.4828 27.0324 35.9998 26.3973 36C25.7956 36 25.2905 35.5298 25.2479 34.9297L24.6757 26.8779H19.3251L18.7528 34.9297C18.71 35.5298 18.2051 35.9999 17.6034 36C16.9681 36 16.451 35.483 16.451 34.8477V26.8779H16.1688C15.3999 26.8779 14.7744 26.2522 14.7743 25.4834V23.4492C14.7744 22.6804 15.3999 22.0547 16.1688 22.0547H16.2128L15.826 13.7988C15.6837 10.7575 15.6922 10.9657 15.6923 10.8691C15.6923 9.28719 16.9802 8 18.5634 8H25.4364ZM17.2714 34.8477C17.2714 35.0307 17.4204 35.1797 17.6034 35.1797C17.7768 35.1796 17.9221 35.044 17.9344 34.8711L18.5028 26.8779H17.2714V34.8477ZM26.0653 34.8711C26.0776 35.044 26.2239 35.1797 26.3973 35.1797C26.58 35.1794 26.7284 35.0305 26.7284 34.8477V26.8779H25.4979L26.0653 34.8711ZM16.1688 22.875C15.8522 22.875 15.5947 23.1327 15.5946 23.4492V25.4834C15.5947 25.7999 15.8522 26.0576 16.1688 26.0576H27.8309C28.1476 26.0576 28.405 25.7999 28.4052 25.4834V23.4492C28.4051 23.1327 28.1476 22.875 27.8309 22.875H16.1688ZM18.5634 8.82031C17.4325 8.82031 16.5126 9.73957 16.5126 10.8691C16.5126 10.9393 16.5044 10.7478 16.6454 13.7598L17.0341 22.0547H26.9667L27.4315 12.1182C27.4901 10.865 27.4872 10.9358 27.4872 10.8691C27.4872 9.73957 26.5672 8.82031 25.4364 8.82031H18.5634Z" fill="#363636"/>
</g>
</g>
</g>
<defs>
<clipPath id="clip0_1_855">
<rect width="44" height="44" fill="white"/>
</clipPath>
<clipPath id="clip1_1_855">
<rect width="28" height="28" fill="white" transform="translate(8 8)"/>
</clipPath>
</defs>
</svg>
