<svg width="24" height="24" viewBox="0 0 24 24" fill="none" xmlns="http://www.w3.org/2000/svg">
<path d="M12 2C17.5228 2 22 6.47715 22 12C22 17.5228 17.5228 22 12 22C6.47715 22 2 17.5228 2 12C2 6.47715 6.47715 2 12 2ZM12 3.53809C7.32682 3.53809 3.53809 7.32682 3.53809 12C3.53809 16.6732 7.32682 20.4619 12 20.4619C16.6732 20.4619 20.4619 16.6732 20.4619 12C20.4619 7.32682 16.6732 3.53809 12 3.53809ZM14.2764 8.37891C14.5767 8.07886 15.0639 8.0788 15.3643 8.37891C15.6646 8.67921 15.6644 9.16637 15.3643 9.4668L12.8311 11.999L15.3643 14.5322C15.6646 14.8325 15.6644 15.3197 15.3643 15.6201C15.0639 15.9205 14.5768 15.9205 14.2764 15.6201L11.7432 13.0869L9.21094 15.6201C8.91054 15.9205 8.42345 15.9205 8.12305 15.6201C7.82284 15.3197 7.8227 14.8326 8.12305 14.5322L10.6553 11.999L8.12305 9.4668C7.82267 9.1664 7.82266 8.6793 8.12305 8.37891C8.42346 8.0788 8.91063 8.07863 9.21094 8.37891L11.7432 10.9111L14.2764 8.37891Z" fill="#C07701"/>
</svg>
