<svg width="20" height="20" viewBox="0 0 20 20" fill="none" xmlns="http://www.w3.org/2000/svg">
<path d="M15.333 2.66667C16.0696 2.66667 16.6668 3.29025 16.667 4.06023L17.9688 16.3102C17.988 16.4057 18 16.5043 18 16.6061C18 17.3761 17.4034 17.9995 16.667 17.9997H3.33301C2.59651 17.9995 2.00003 17.3761 2 16.6061C2 16.5043 2.01192 16.4057 2.03125 16.3102L3.33301 4.06023C3.33321 3.29025 3.93044 2.66667 4.66699 2.66667H15.333ZM13 4.06023C12.448 4.06023 12 4.52903 12 5.10612V6.84831C12 8.0011 11.1027 8.93913 10 8.93913C8.89733 8.93913 8 8.0011 8 6.84831V5.10612C8 4.52903 7.552 4.06023 7 4.06023C6.448 4.06023 6 4.52903 6 5.10612C6.00003 5.56053 6.27967 5.944 6.66699 6.08757V6.84831C6.66699 8.76985 8.162 10.3337 10 10.3337C11.838 10.3337 13.333 8.76985 13.333 6.84831V6.08757C13.7204 5.944 14 5.56053 14 5.10612C14 4.52903 13.552 4.06023 13 4.06023Z" fill="#C07701"/>
</svg>
