<svg width="44" height="69" viewBox="0 0 44 69" fill="none" xmlns="http://www.w3.org/2000/svg">
<path d="M11.084 54.242V55.278H8.424V64H7.15V55.278H4.476V54.242H11.084ZM12.1762 60.136C12.1762 59.352 12.3349 58.666 12.6522 58.078C12.9696 57.4807 13.4036 57.0187 13.9542 56.692C14.5142 56.3653 15.1349 56.202 15.8162 56.202C16.4882 56.202 17.0716 56.3467 17.5662 56.636C18.0609 56.9253 18.4296 57.2893 18.6722 57.728V56.328H19.9602V64H18.6722V62.572C18.4202 63.02 18.0422 63.3933 17.5382 63.692C17.0436 63.9813 16.4649 64.126 15.8022 64.126C15.1209 64.126 14.5049 63.958 13.9542 63.622C13.4036 63.286 12.9696 62.8147 12.6522 62.208C12.3349 61.6013 12.1762 60.9107 12.1762 60.136ZM18.6722 60.15C18.6722 59.5713 18.5556 59.0673 18.3222 58.638C18.0889 58.2087 17.7716 57.882 17.3702 57.658C16.9782 57.4247 16.5442 57.308 16.0682 57.308C15.5922 57.308 15.1582 57.42 14.7662 57.644C14.3742 57.868 14.0616 58.1947 13.8282 58.624C13.5949 59.0533 13.4782 59.5573 13.4782 60.136C13.4782 60.724 13.5949 61.2373 13.8282 61.676C14.0616 62.1053 14.3742 62.4367 14.7662 62.67C15.1582 62.894 15.5922 63.006 16.0682 63.006C16.5442 63.006 16.9782 62.894 17.3702 62.67C17.7716 62.4367 18.0889 62.1053 18.3222 61.676C18.5556 61.2373 18.6722 60.7287 18.6722 60.15ZM23.3872 57.756C23.6485 57.2987 24.0312 56.9253 24.5352 56.636C25.0392 56.3467 25.6132 56.202 26.2572 56.202C26.9478 56.202 27.5685 56.3653 28.1192 56.692C28.6698 57.0187 29.1038 57.4807 29.4212 58.078C29.7385 58.666 29.8972 59.352 29.8972 60.136C29.8972 60.9107 29.7385 61.6013 29.4212 62.208C29.1038 62.8147 28.6652 63.286 28.1052 63.622C27.5545 63.958 26.9385 64.126 26.2572 64.126C25.5945 64.126 25.0112 63.9813 24.5072 63.692C24.0125 63.4027 23.6392 63.034 23.3872 62.586V64H22.1132V53.64H23.3872V57.756ZM28.5952 60.136C28.5952 59.5573 28.4785 59.0533 28.2452 58.624C28.0118 58.1947 27.6945 57.868 27.2932 57.644C26.9012 57.42 26.4672 57.308 25.9912 57.308C25.5245 57.308 25.0905 57.4247 24.6892 57.658C24.2972 57.882 23.9798 58.2133 23.7372 58.652C23.5038 59.0813 23.3872 59.5807 23.3872 60.15C23.3872 60.7287 23.5038 61.2373 23.7372 61.676C23.9798 62.1053 24.2972 62.4367 24.6892 62.67C25.0905 62.894 25.5245 63.006 25.9912 63.006C26.4672 63.006 26.9012 62.894 27.2932 62.67C27.6945 62.4367 28.0118 62.1053 28.2452 61.676C28.4785 61.2373 28.5952 60.724 28.5952 60.136ZM32.8481 53.64V64H31.5741V53.64H32.8481ZM42.0194 59.87C42.0194 60.1127 42.0054 60.3693 41.9774 60.64H35.8454C35.8921 61.396 36.1487 61.9887 36.6154 62.418C37.0914 62.838 37.6654 63.048 38.3374 63.048C38.8881 63.048 39.3454 62.922 39.7094 62.67C40.0827 62.4087 40.3441 62.0633 40.4934 61.634H41.8654C41.6601 62.3713 41.2494 62.9733 40.6334 63.44C40.0174 63.8973 39.2521 64.126 38.3374 64.126C37.6094 64.126 36.9561 63.9627 36.3774 63.636C35.8081 63.3093 35.3601 62.8473 35.0334 62.25C34.7067 61.6433 34.5434 60.9433 34.5434 60.15C34.5434 59.3567 34.7021 58.6613 35.0194 58.064C35.3367 57.4667 35.7801 57.0093 36.3494 56.692C36.9281 56.3653 37.5907 56.202 38.3374 56.202C39.0654 56.202 39.7094 56.3607 40.2694 56.678C40.8294 56.9953 41.2587 57.434 41.5574 57.994C41.8654 58.5447 42.0194 59.17 42.0194 59.87ZM40.7034 59.604C40.7034 59.1187 40.5961 58.7033 40.3814 58.358C40.1667 58.0033 39.8727 57.7373 39.4994 57.56C39.1354 57.3733 38.7294 57.28 38.2814 57.28C37.6374 57.28 37.0867 57.4853 36.6294 57.896C36.1814 58.3067 35.9247 58.876 35.8594 59.604H40.7034Z" fill="#363636"/>
<g clip-path="url(#clip0_1_867)">
<rect width="44" height="44" rx="12" fill="#F5F5F5"/>
<g clip-path="url(#clip1_1_867)">
<mask id="mask0_1_867" style="mask-type:alpha" maskUnits="userSpaceOnUse" x="8" y="8" width="28" height="28">
<rect x="8" y="8" width="28" height="28" fill="white"/>
</mask>
<g mask="url(#mask0_1_867)">
<path d="M35.5625 11.9375C35.8041 11.9375 36 12.1334 36 12.375V15C36 15.2416 35.8041 15.4375 35.5625 15.4375H34.25V31.625C34.25 31.8666 34.0541 32.0625 33.8125 32.0625H32.0625C31.8209 32.0625 31.625 31.8666 31.625 31.625V15.4375H12.375V31.625C12.375 31.8666 12.1791 32.0625 11.9375 32.0625H10.1875C9.94589 32.0625 9.75 31.8666 9.75 31.625V15.4375H8.4375C8.19589 15.4375 8 15.2416 8 15V12.375C8 12.1334 8.19589 11.9375 8.4375 11.9375H35.5625ZM8.875 12.8125V14.5625H10.1875C10.4291 14.5625 10.625 14.7584 10.625 15V31.1875H11.5V15C11.5 14.7584 11.6959 14.5625 11.9375 14.5625H32.0625C32.3041 14.5625 32.5 14.7584 32.5 15V31.1875H33.375V15C33.375 14.7584 33.5709 14.5625 33.8125 14.5625H35.125V12.8125H8.875Z" fill="#363636"/>
</g>
</g>
</g>
<defs>
<clipPath id="clip0_1_867">
<rect width="44" height="44" fill="white"/>
</clipPath>
<clipPath id="clip1_1_867">
<rect width="28" height="28" fill="white" transform="translate(8 8)"/>
</clipPath>
</defs>
</svg>
